<svg width="180" height="40" viewBox="0 0 180 40" fill="none" xmlns="http://www.w3.org/2000/svg">
  <rect width="40" height="40" rx="8" fill="#0F172A"/>
  <path d="M13.5 26C15.2619 26 16.6667 24.842 16.6667 23.2286C16.6667 21.8712 15.7976 21.0196 13.9048 20.4768L12.5476 20.0716C11.1571 19.6664 10.4762 19.0957 10.4762 18.1428C10.4762 17.1048 11.3571 16.3668 12.6809 16.3668C13.9809 16.3668 14.9286 16.8804 15.3571 17.8476L16.9048 17.0716C16.3 15.7612 14.95 14.9144 13.0524 14.9144C10.9 14.9144 9.28571 16.2 9.28571 18.0476C9.28571 19.4768 10.2143 20.3476 12.2381 20.9284L13.5952 21.3336C15.0714 21.7528 15.6667 22.2956 15.6667 23.2668C15.6667 24.3232 14.7857 25.0572 13.4619 25.0572C12.0429 25.0572 11.0238 24.4188 10.5476 23.3336L9 24.1336C9.64286 25.7476 11.119 26.6856 13.5 26.6856Z" fill="#38BDF8"/>
  <path d="M22.4524 26.6284C25.2286 26.6284 27.2857 24.3048 27.2857 21.0956C27.2857 17.9144 25.2286 15.5716 22.4524 15.5716C19.6762 15.5716 17.619 17.9144 17.619 21.0956C17.619 24.3048 19.6762 26.6284 22.4524 26.6284ZM22.4524 25.114  C20.6143 25.114 19.2381 23.3904 19.2381 21.0956C19.2381 18.8192 20.6143 17.0764 22.4524 17.0764C24.2905 17.0764 25.6667 18.8192 25.6667 21.0956C25.6667 23.3904 24.2905 25.114 22.4524 25.114Z" fill="white"/>
  <path d="M30.5952 26.5332C32.3809 26.5332 33.5952 25.7236 34.0714 24.3044L32.6429 23.7616C32.3095 24.6476 31.5476 25.152 30.5952 25.152C29.1667 25.152 28.1905 23.8952 28.1905 21.5236C28.1905 19.1332 29.1524 17.8952 30.5952 17.8952C31.4952 17.8952 32.2238 18.38 32.5619 19.246L33.9905 18.704C33.5429 17.3148 32.3619 16.4956 30.5952 16.4956C28.2238 16.4956 26.5714 18.4376 26.5714 21.542C26.5714 24.628 28.1905 26.5332 30.5952 26.5332Z" fill="#38BDF8"/>
  <g font-family="'Inter', 'Segoe UI', sans-serif" font-size="18" font-weight="600" fill="#0F172A">
    <text x="48" y="23">SnSD Consultants</text>
  </g>
</svg>
